<svg xmlns="http://www.w3.org/2000/svg" width="121.5" height="26.388" viewBox="0 0 121.5 26.388"><path id="Path_1" data-name="Path 1" d="M-48.312-18h4.644V0h-4.644V-2.016A6,6,0,0,1-53.676.5a6.516,6.516,0,0,1-4.878-1.98A7.516,7.516,0,0,1-60.48-6.948V-18h4.644V-7.524a3.688,3.688,0,0,0,.972,2.754,3.54,3.54,0,0,0,2.592.954,3.823,3.823,0,0,0,2.88-1.116,4.641,4.641,0,0,0,1.08-3.348Zm22.5-.5a6.516,6.516,0,0,1,4.878,1.98,7.516,7.516,0,0,1,1.926,5.472V0h-4.644V-10.476a3.688,3.688,0,0,0-.972-2.754,3.54,3.54,0,0,0-2.592-.954,3.823,3.823,0,0,0-2.88,1.116,4.641,4.641,0,0,0-1.08,3.348V0H-35.82V-18h4.644v2.016A6,6,0,0,1-25.812-18.5ZM-9.144-20.16a2.732,2.732,0,0,1-2-.846,2.732,2.732,0,0,1-.846-2,2.792,2.792,0,0,1,.846-2.016,2.7,2.7,0,0,1,2-.864,2.745,2.745,0,0,1,2.034.864A2.792,2.792,0,0,1-6.264-23a2.732,2.732,0,0,1-.846,2A2.773,2.773,0,0,1-9.144-20.16ZM-11.448,0V-18H-6.8V0ZM9.612.5A9.177,9.177,0,0,1,2.826-2.232,9.225,9.225,0,0,1,.108-9a9.225,9.225,0,0,1,2.718-6.768A9.177,9.177,0,0,1,9.612-18.5a9.328,9.328,0,0,1,4.788,1.26,8.378,8.378,0,0,1,3.276,3.384l-4,2.34a4.074,4.074,0,0,0-1.638-1.764,4.76,4.76,0,0,0-2.466-.648A4.652,4.652,0,0,0,6.12-12.546,4.836,4.836,0,0,0,4.752-9,4.79,4.79,0,0,0,6.12-5.49,4.652,4.652,0,0,0,9.576-4.1a4.937,4.937,0,0,0,2.5-.63A3.968,3.968,0,0,0,13.716-6.48l4.032,2.3A9.017,9.017,0,0,1,14.4-.774,9.227,9.227,0,0,1,9.612.5ZM38.844-2.232A9.27,9.27,0,0,1,32.076.5a9.179,9.179,0,0,1-6.75-2.754A9.179,9.179,0,0,1,22.572-9a9.179,9.179,0,0,1,2.754-6.75,9.179,9.179,0,0,1,6.75-2.754,9.238,9.238,0,0,1,6.768,2.754A9.148,9.148,0,0,1,41.616-9,9.208,9.208,0,0,1,38.844-2.232Zm-10.26-3.2a4.74,4.74,0,0,0,3.492,1.4,4.74,4.74,0,0,0,3.492-1.4A4.829,4.829,0,0,0,36.972-9a4.829,4.829,0,0,0-1.4-3.564,4.74,4.74,0,0,0-3.492-1.4,4.681,4.681,0,0,0-3.474,1.4A4.862,4.862,0,0,0,27.216-9,4.9,4.9,0,0,0,28.584-5.436Zm24.444,1.08H61.02V0H46.8V-3.1l7.6-10.548H47.16V-18h13.5v3.1Z" transform="translate(60.48 25.884)" fill="#040404"></path></svg>