<svg width="210" height="150" viewBox="0 0 210 150" fill="none" xmlns="http://www.w3.org/2000/svg">
<rect width="1440" height="1024" transform="translate(-510 -815)" fill="white"/>
<rect x="-510" y="-815" width="1440" height="1024" fill="#D9D9D9"/>
<path d="M114.84 70.72H117.36V98H121.28L132.6 74.64V95.28H130V98H138.4V95.28H135.88V70.72H138.4V68H132.24L120.64 91.84V70.72H123.24V68H114.84V70.72ZM104.97 98.08C107.05 98.08 108.09 97.0533 108.09 95V80.68H110.65V77.96H104.85V95.28L96.89 90.28V80.68H98.85V77.96H93.65V95.28H91.13V98H96.89V93.52L103.53 97.68C103.957 97.9467 104.437 98.08 104.97 98.08ZM89.3156 100.88H68.0356V102.48H89.3156V100.88ZM53.7959 83.84H59.4359V95.28H56.8359V98H65.2359V95.28H62.7159V70.72H65.2359V68H46.4759V75.4H49.1959V70.72H59.4359V81.12H53.7959V78.28H51.0759V86.68H53.7959V83.84Z" fill="black"/>
</svg>
