<svg xmlns="http://www.w3.org/2000/svg" xmlns:xlink="http://www.w3.org/1999/xlink" width="399.463" height="79.925" viewBox="0 0 399.463 79.925"><defs><clipPath id="clip-path"><path id="unicoz" d="M1036.429,171.143a29.226,29.226,0,0,1,0-40.89,28.868,28.868,0,0,1,49.34,20.444,28.992,28.992,0,0,1-49.34,20.445Zm9.922-31.24a15.98,15.98,0,0,0,0,21.59,14.175,14.175,0,0,0,10.522,4.253,14.359,14.359,0,0,0,10.577-4.253,15.828,15.828,0,0,0,0-21.59,14.358,14.358,0,0,0-10.577-4.252A14.175,14.175,0,0,0,1046.352,139.9ZM968.279,171.2a29.639,29.639,0,0,1,0-41,27.8,27.8,0,0,1,20.554-8.288,28.264,28.264,0,0,1,14.5,3.817,25.386,25.386,0,0,1,9.922,10.25l-12.1,7.087a12.345,12.345,0,0,0-4.961-5.343,14.423,14.423,0,0,0-7.469-1.963,14.1,14.1,0,0,0-10.468,4.2,15.851,15.851,0,0,0,0,21.372,14.088,14.088,0,0,0,10.468,4.2,14.95,14.95,0,0,0,7.578-1.908,12.014,12.014,0,0,0,4.961-5.288l12.213,6.979a27.292,27.292,0,0,1-10.141,10.3,29.422,29.422,0,0,1-35.056-4.415ZM782.37,173.487q-5.835-6-5.833-16.574V123.439H790.6v31.73q0,5.453,2.944,8.341a10.724,10.724,0,0,0,7.852,2.89,11.58,11.58,0,0,0,8.723-3.38q3.271-3.378,3.271-10.141v-29.44h14.066v54.519H813.392v-6.106q-5.127,7.633-16.247,7.633A19.73,19.73,0,0,1,782.37,173.487Zm319.119,4.471v-9.364l22.989-31.962h-21.917V123.439h40.85v9.348l-23.136,31.978h24.206v13.193Zm-176.442,0V123.439h14.065v54.519Zm-36.964,0V146.227q0-5.45-2.945-8.341a10.725,10.725,0,0,0-7.85-2.889,11.58,11.58,0,0,0-8.724,3.381q-3.271,3.38-3.271,10.139v29.441H851.228V123.439h14.065v6.106q5.125-7.63,16.247-7.633a19.745,19.745,0,0,1,14.775,6q5.832,6,5.834,16.574v33.475Zm37.89-63.624a8.275,8.275,0,0,1-2.562-6.053,8.458,8.458,0,0,1,2.562-6.106,8.189,8.189,0,0,1,6.052-2.616,8.316,8.316,0,0,1,6.161,2.616,8.462,8.462,0,0,1,2.562,6.106,8.279,8.279,0,0,1-2.562,6.053,8.4,8.4,0,0,1-6.161,2.562A8.272,8.272,0,0,1,925.973,114.334Z" fill="#fff"></path></clipPath></defs><g id="unicoz-2" data-name="unicoz" transform="translate(-776.537 -99.559)"><path id="unicoz-3" data-name="unicoz" d="M1036.429,171.143a29.226,29.226,0,0,1,0-40.89,28.868,28.868,0,0,1,49.34,20.444,28.992,28.992,0,0,1-49.34,20.445Zm9.922-31.24a15.98,15.98,0,0,0,0,21.59,14.175,14.175,0,0,0,10.522,4.253,14.359,14.359,0,0,0,10.577-4.253,15.828,15.828,0,0,0,0-21.59,14.358,14.358,0,0,0-10.577-4.252A14.175,14.175,0,0,0,1046.352,139.9ZM968.279,171.2a29.639,29.639,0,0,1,0-41,27.8,27.8,0,0,1,20.554-8.288,28.264,28.264,0,0,1,14.5,3.817,25.386,25.386,0,0,1,9.922,10.25l-12.1,7.087a12.345,12.345,0,0,0-4.961-5.343,14.423,14.423,0,0,0-7.469-1.963,14.1,14.1,0,0,0-10.468,4.2,15.851,15.851,0,0,0,0,21.372,14.088,14.088,0,0,0,10.468,4.2,14.95,14.95,0,0,0,7.578-1.908,12.014,12.014,0,0,0,4.961-5.288l12.213,6.979a27.292,27.292,0,0,1-10.141,10.3,29.422,29.422,0,0,1-35.056-4.415ZM782.37,173.487q-5.835-6-5.833-16.574V123.439H790.6v31.73q0,5.453,2.944,8.341a10.724,10.724,0,0,0,7.852,2.89,11.58,11.58,0,0,0,8.723-3.38q3.271-3.378,3.271-10.141v-29.44h14.066v54.519H813.392v-6.106q-5.127,7.633-16.247,7.633A19.73,19.73,0,0,1,782.37,173.487Zm319.119,4.471v-9.364l22.989-31.962h-21.917V123.439h40.85v9.348l-23.136,31.978h24.206v13.193Zm-176.442,0V123.439h14.065v54.519Zm-36.964,0V146.227q0-5.45-2.945-8.341a10.725,10.725,0,0,0-7.85-2.889,11.58,11.58,0,0,0-8.724,3.381q-3.271,3.38-3.271,10.139v29.441H851.228V123.439h14.065v6.106q5.125-7.63,16.247-7.633a19.745,19.745,0,0,1,14.775,6q5.832,6,5.834,16.574v33.475Zm37.89-63.624a8.275,8.275,0,0,1-2.562-6.053,8.458,8.458,0,0,1,2.562-6.106,8.189,8.189,0,0,1,6.052-2.616,8.316,8.316,0,0,1,6.161,2.616,8.462,8.462,0,0,1,2.562,6.106,8.279,8.279,0,0,1-2.562,6.053,8.4,8.4,0,0,1-6.161,2.562A8.272,8.272,0,0,1,925.973,114.334Z" fill="#fff"></path><g id="Clip" clip-path="url(#clip-path)"><circle id="Ellipse_3" data-name="Ellipse 3" cx="12" cy="12" r="12" transform="translate(920 96)" fill="#f5fd22"></circle></g><g id="Group_4" data-name="Group 4"><rect id="bg" width="50" height="24" rx="12" transform="translate(1126 109)" fill="#ef2853"></rect><text id="v_1.0" data-name="v 1.0" transform="translate(1151.359 125.934)" fill="#fff" font-size="14" font-family="Jost" font-weight="700"><tspan x="-16.24" y="0">v 1.0</tspan></text></g></g></svg>